Don 2 (2011) x264 DvDScr 300mb



Video
ID                               : 1
Format                           : AVC
Format/Info                      : Advanced Video Codec
Format profile                   : High@L2.1
Format settings, CABAC           : Yes
Format settings, ReFrames        : 8 frames
Duration                         : 2h 20mn
Bit rate                         : 244 Kbps
Nominal bit rate                 : 260 Kbps
Width                            : 624 pixels
Height                           : 240 pixels
Display aspect ratio             : 2.600
Frame rate                       : 25.000 fps
Color space                      : YUV
Chroma subsampling               : 4:2:0
Bit depth                        : 8 bits
Scan type                        : Progressive
Bits/(Pixel*Frame)               : 0.065
Stream size                      : 245 MiB (80%)
Writing library                  : x264 core

Audio
ID                               : 2
Format settings, Floor           : 1
Duration                         : 2h 20mn
Bit rate mode                    : Constant
Bit rate                         : 56.0 Kbps
Channel(s)                       : 2 channels
Sampling rate                    : 24.0 KHz
Stream size                      : 56.2 MiB (18%)


Screens
 
http://www.shotpix.com/images/47642734884210255693.jpg
 
http://www.shotpix.com/images/50774925274137924071.jpg
 
http://www.shotpix.com/images/54401800497220649446.jpg
 
http://www.shotpix.com/images/76921015065152452668.jpg
 
http://www.shotpix.com/images/29154825961486685468.jpg